<?xml version="1.0" encoding="UTF-8" standalone="no"?>
<!DOCTYPE svg PUBLIC "-//W3C//DTD SVG 1.1//EN"
 "http://www.w3.org/Graphics/SVG/1.1/DTD/svg11.dtd">
<!-- Generated by graphviz version 2.47.0 (20210316.0004)
 -->
<!-- Title: dependencies Pages: 1 -->
<svg width="538pt" height="211pt"
 viewBox="0.00 0.00 538.00 211.00" xmlns="http://www.w3.org/2000/svg" xmlns:xlink="http://www.w3.org/1999/xlink">
<g id="graph0" class="graph" transform="scale(1 1) rotate(0) translate(4 207)">
<title>dependencies</title>
<polygon fill="white" stroke="transparent" points="-4,4 -4,-207 534,-207 534,4 -4,4"/>
<text text-anchor="start" x="244.01" y="-42.4" font-family="sans-serif" font-weight="bold" font-size="14.00">Legend</text>
<polygon fill="#ffffb3" stroke="transparent" points="31,-10 31,-30 51,-30 51,-10 31,-10"/>
<text text-anchor="start" x="54.63" y="-15.4" font-family="sans-serif" font-size="14.00"> &#160;Declarations</text>
<polygon fill="#8dd3c7" stroke="transparent" points="144,-10 144,-30 164,-30 164,-10 144,-10"/>
<text text-anchor="start" x="167.73" y="-15.4" font-family="sans-serif" font-size="14.00"> &#160;Module</text>
<polygon fill="#80b1d3" stroke="transparent" points="230,-10 230,-30 250,-30 250,-10 230,-10"/>
<text text-anchor="start" x="253.78" y="-15.4" font-family="sans-serif" font-size="14.00"> &#160;Bootstrap</text>
<polygon fill="#fdb462" stroke="transparent" points="327,-10 327,-30 347,-30 347,-10 327,-10"/>
<text text-anchor="start" x="350.67" y="-15.4" font-family="sans-serif" font-size="14.00"> &#160;Providers</text>
<polygon fill="#fb8072" stroke="transparent" points="423,-10 423,-30 443,-30 443,-10 423,-10"/>
<text text-anchor="start" x="446.73" y="-15.4" font-family="sans-serif" font-size="14.00"> &#160;Exports</text>
<g id="clust1" class="cluster">
<title>cluster_MultiModule</title>
<polygon fill="none" stroke="black" stroke-dasharray="1,5" points="8,-70 8,-195 522,-195 522,-70 8,-70"/>
</g>
<g id="clust5" class="cluster">
<title>cluster_MultiModule_imports</title>
<polygon fill="none" stroke="black" points="356,-78 356,-130 514,-130 514,-78 356,-78"/>
</g>
<g id="clust2" class="cluster">
<title>cluster_MultiModule_declarations</title>
<polygon fill="none" stroke="black" points="16,-78 16,-130 348,-130 348,-78 16,-78"/>
</g>
<!-- SecondLevelComponent -->
<g id="node1" class="node">
<title>SecondLevelComponent</title>
<polygon fill="#ffffb3" stroke="black" points="340.42,-122 185.58,-122 185.58,-86 340.42,-86 340.42,-122"/>
<text text-anchor="middle" x="263" y="-99.8" font-family="Times,serif" font-size="14.00">SecondLevelComponent</text>
</g>
<!-- MultiModule -->
<g id="node3" class="node">
<title>MultiModule</title>
<polygon fill="#8dd3c7" stroke="black" points="308.17,-187 305.17,-191 284.17,-191 281.17,-187 217.83,-187 217.83,-151 308.17,-151 308.17,-187"/>
<text text-anchor="middle" x="263" y="-164.8" font-family="Times,serif" font-size="14.00">MultiModule</text>
</g>
<!-- SecondLevelComponent&#45;&gt;MultiModule -->
<g id="edge1" class="edge">
<title>SecondLevelComponent&#45;&gt;MultiModule</title>
<path fill="none" stroke="black" d="M263,-122.11C263,-122.11 263,-140.99 263,-140.99"/>
<polygon fill="black" stroke="black" points="259.5,-140.99 263,-150.99 266.5,-140.99 259.5,-140.99"/>
</g>
<!-- ThirdLevelComponent -->
<g id="node2" class="node">
<title>ThirdLevelComponent</title>
<polygon fill="#ffffb3" stroke="black" points="168.31,-122 23.69,-122 23.69,-86 168.31,-86 168.31,-122"/>
<text text-anchor="middle" x="96" y="-99.8" font-family="Times,serif" font-size="14.00">ThirdLevelComponent</text>
</g>
<!-- ThirdLevelComponent&#45;&gt;MultiModule -->
<g id="edge2" class="edge">
<title>ThirdLevelComponent&#45;&gt;MultiModule</title>
<path fill="none" stroke="black" d="M96,-122.11C96,-141.34 96,-169 96,-169 96,-169 207.81,-169 207.81,-169"/>
<polygon fill="black" stroke="black" points="207.81,-172.5 217.81,-169 207.81,-165.5 207.81,-172.5"/>
</g>
<!-- DemoMaterialModule -->
<g id="node4" class="node">
<title>DemoMaterialModule</title>
<polygon fill="#8dd3c7" stroke="black" points="505.68,-122 502.68,-126 481.68,-126 478.68,-122 364.32,-122 364.32,-86 505.68,-86 505.68,-122"/>
<text text-anchor="middle" x="435" y="-99.8" font-family="Times,serif" font-size="14.00">DemoMaterialModule</text>
</g>
<!-- DemoMaterialModule&#45;&gt;MultiModule -->
<g id="edge3" class="edge">
<title>DemoMaterialModule&#45;&gt;MultiModule</title>
<path fill="none" stroke="black" d="M435,-122.11C435,-141.34 435,-169 435,-169 435,-169 318.19,-169 318.19,-169"/>
<polygon fill="black" stroke="black" points="318.19,-165.5 308.19,-169 318.19,-172.5 318.19,-165.5"/>
</g>
</g>
</svg>
