<?xml version="1.0" encoding="UTF-8" standalone="no"?>
<!DOCTYPE svg PUBLIC "-//W3C//DTD SVG 1.1//EN"
 "http://www.w3.org/Graphics/SVG/1.1/DTD/svg11.dtd">
<!-- Generated by graphviz version 2.47.0 (20210316.0004)
 -->
<!-- Title: dependencies Pages: 1 -->
<svg width="3191pt" height="211pt"
 viewBox="0.00 0.00 3191.00 211.00" xmlns="http://www.w3.org/2000/svg" xmlns:xlink="http://www.w3.org/1999/xlink">
<g id="graph0" class="graph" transform="scale(1 1) rotate(0) translate(4 207)">
<title>dependencies</title>
<polygon fill="white" stroke="transparent" points="-4,4 -4,-207 3187,-207 3187,4 -4,4"/>
<text text-anchor="start" x="1570.51" y="-42.4" font-family="sans-serif" font-weight="bold" font-size="14.00">Legend</text>
<polygon fill="#ffffb3" stroke="transparent" points="1357.5,-10 1357.5,-30 1377.5,-30 1377.5,-10 1357.5,-10"/>
<text text-anchor="start" x="1381.13" y="-15.4" font-family="sans-serif" font-size="14.00"> &#160;Declarations</text>
<polygon fill="#8dd3c7" stroke="transparent" points="1470.5,-10 1470.5,-30 1490.5,-30 1490.5,-10 1470.5,-10"/>
<text text-anchor="start" x="1494.23" y="-15.4" font-family="sans-serif" font-size="14.00"> &#160;Module</text>
<polygon fill="#80b1d3" stroke="transparent" points="1556.5,-10 1556.5,-30 1576.5,-30 1576.5,-10 1556.5,-10"/>
<text text-anchor="start" x="1580.28" y="-15.4" font-family="sans-serif" font-size="14.00"> &#160;Bootstrap</text>
<polygon fill="#fdb462" stroke="transparent" points="1653.5,-10 1653.5,-30 1673.5,-30 1673.5,-10 1653.5,-10"/>
<text text-anchor="start" x="1677.17" y="-15.4" font-family="sans-serif" font-size="14.00"> &#160;Providers</text>
<polygon fill="#fb8072" stroke="transparent" points="1749.5,-10 1749.5,-30 1769.5,-30 1769.5,-10 1749.5,-10"/>
<text text-anchor="start" x="1773.23" y="-15.4" font-family="sans-serif" font-size="14.00"> &#160;Exports</text>
<g id="clust1" class="cluster">
<title>cluster_MaterialComponentsModule</title>
<polygon fill="none" stroke="black" stroke-dasharray="1,5" points="8,-70 8,-195 3175,-195 3175,-70 8,-70"/>
</g>
<g id="clust2" class="cluster">
<title>cluster_MaterialComponentsModule_declarations</title>
<polygon fill="none" stroke="black" points="182,-78 182,-130 3167,-130 3167,-78 182,-78"/>
</g>
<g id="clust23" class="cluster">
<title>cluster_MaterialComponentsModule_imports</title>
<polygon fill="none" stroke="black" points="16,-78 16,-130 174,-130 174,-78 16,-78"/>
</g>
<!-- BadgeComponent -->
<g id="node1" class="node">
<title>BadgeComponent</title>
<polygon fill="#ffffb3" stroke="black" points="3158.6,-122 3041.4,-122 3041.4,-86 3158.6,-86 3158.6,-122"/>
<text text-anchor="middle" x="3100" y="-99.8" font-family="Times,serif" font-size="14.00">BadgeComponent</text>
</g>
<!-- MaterialComponentsModule -->
<g id="node21" class="node">
<title>MaterialComponentsModule</title>
<polygon fill="#8dd3c7" stroke="black" points="1680.75,-187 1677.75,-191 1656.75,-191 1653.75,-187 1503.25,-187 1503.25,-151 1680.75,-151 1680.75,-187"/>
<text text-anchor="middle" x="1592" y="-164.8" font-family="Times,serif" font-size="14.00">MaterialComponentsModule</text>
</g>
<!-- BadgeComponent&#45;&gt;MaterialComponentsModule -->
<g id="edge1" class="edge">
<title>BadgeComponent&#45;&gt;MaterialComponentsModule</title>
<path fill="none" stroke="black" d="M3100,-122.15C3100,-145.76 3100,-184 3100,-184 3100,-184 1690.98,-184 1690.98,-184"/>
<polygon fill="black" stroke="black" points="1690.98,-180.5 1680.98,-184 1690.98,-187.5 1690.98,-180.5"/>
</g>
<!-- ButtonsComponent -->
<g id="node2" class="node">
<title>ButtonsComponent</title>
<polygon fill="#ffffb3" stroke="black" points="3023.39,-122 2898.61,-122 2898.61,-86 3023.39,-86 3023.39,-122"/>
<text text-anchor="middle" x="2961" y="-99.8" font-family="Times,serif" font-size="14.00">ButtonsComponent</text>
</g>
<!-- ButtonsComponent&#45;&gt;MaterialComponentsModule -->
<g id="edge2" class="edge">
<title>ButtonsComponent&#45;&gt;MaterialComponentsModule</title>
<path fill="none" stroke="black" d="M2961,-122.01C2961,-144.49 2961,-180 2961,-180 2961,-180 1690.77,-180 1690.77,-180"/>
<polygon fill="black" stroke="black" points="1690.77,-176.5 1680.77,-180 1690.77,-183.5 1690.77,-176.5"/>
</g>
<!-- CardsComponent -->
<g id="node3" class="node">
<title>CardsComponent</title>
<polygon fill="#ffffb3" stroke="black" points="2880.99,-122 2767.01,-122 2767.01,-86 2880.99,-86 2880.99,-122"/>
<text text-anchor="middle" x="2824" y="-99.8" font-family="Times,serif" font-size="14.00">CardsComponent</text>
</g>
<!-- CardsComponent&#45;&gt;MaterialComponentsModule -->
<g id="edge3" class="edge">
<title>CardsComponent&#45;&gt;MaterialComponentsModule</title>
<path fill="none" stroke="black" d="M2824,-122.04C2824,-143.66 2824,-177 2824,-177 2824,-177 1691.1,-177 1691.1,-177"/>
<polygon fill="black" stroke="black" points="1691.1,-173.5 1681.1,-177 1691.1,-180.5 1691.1,-173.5"/>
</g>
<!-- ChipsComponent -->
<g id="node4" class="node">
<title>ChipsComponent</title>
<polygon fill="#ffffb3" stroke="black" points="2749,-122 2635,-122 2635,-86 2749,-86 2749,-122"/>
<text text-anchor="middle" x="2692" y="-99.8" font-family="Times,serif" font-size="14.00">ChipsComponent</text>
</g>
<!-- ChipsComponent&#45;&gt;MaterialComponentsModule -->
<g id="edge4" class="edge">
<title>ChipsComponent&#45;&gt;MaterialComponentsModule</title>
<path fill="none" stroke="black" d="M2692,-122.13C2692,-142.57 2692,-173 2692,-173 2692,-173 1691.09,-173 1691.09,-173"/>
<polygon fill="black" stroke="black" points="1691.09,-169.5 1681.09,-173 1691.09,-176.5 1691.09,-169.5"/>
</g>
<!-- DialogComponent -->
<g id="node5" class="node">
<title>DialogComponent</title>
<polygon fill="#ffffb3" stroke="black" points="2616.94,-122 2497.06,-122 2497.06,-86 2616.94,-86 2616.94,-122"/>
<text text-anchor="middle" x="2557" y="-99.8" font-family="Times,serif" font-size="14.00">DialogComponent</text>
</g>
<!-- DialogComponent&#45;&gt;MaterialComponentsModule -->
<g id="edge5" class="edge">
<title>DialogComponent&#45;&gt;MaterialComponentsModule</title>
<path fill="none" stroke="black" d="M2557,-122.11C2557,-141.34 2557,-169 2557,-169 2557,-169 1691.06,-169 1691.06,-169"/>
<polygon fill="black" stroke="black" points="1691.06,-165.5 1681.06,-169 1691.06,-172.5 1691.06,-165.5"/>
</g>
<!-- DialogOverviewExampleDialogComponent -->
<g id="node6" class="node">
<title>DialogOverviewExampleDialogComponent</title>
<polygon fill="#ffffb3" stroke="black" points="2479.49,-122 2216.51,-122 2216.51,-86 2479.49,-86 2479.49,-122"/>
<text text-anchor="middle" x="2348" y="-99.8" font-family="Times,serif" font-size="14.00">DialogOverviewExampleDialogComponent</text>
</g>
<!-- DialogOverviewExampleDialogComponent&#45;&gt;MaterialComponentsModule -->
<g id="edge6" class="edge">
<title>DialogOverviewExampleDialogComponent&#45;&gt;MaterialComponentsModule</title>
<path fill="none" stroke="black" d="M2348,-122.27C2348,-140.56 2348,-166 2348,-166 2348,-166 1690.95,-166 1690.95,-166"/>
<polygon fill="black" stroke="black" points="1690.95,-162.5 1680.95,-166 1690.95,-169.5 1690.95,-162.5"/>
</g>
<!-- ExpansionComponent -->
<g id="node7" class="node">
<title>ExpansionComponent</title>
<polygon fill="#ffffb3" stroke="black" points="2199.44,-122 2058.56,-122 2058.56,-86 2199.44,-86 2199.44,-122"/>
<text text-anchor="middle" x="2129" y="-99.8" font-family="Times,serif" font-size="14.00">ExpansionComponent</text>
</g>
<!-- ExpansionComponent&#45;&gt;MaterialComponentsModule -->
<g id="edge7" class="edge">
<title>ExpansionComponent&#45;&gt;MaterialComponentsModule</title>
<path fill="none" stroke="black" d="M2129,-122.03C2129,-139.06 2129,-162 2129,-162 2129,-162 1690.98,-162 1690.98,-162"/>
<polygon fill="black" stroke="black" points="1690.98,-158.5 1680.98,-162 1690.98,-165.5 1690.98,-158.5"/>
</g>
<!-- GridComponent -->
<g id="node8" class="node">
<title>GridComponent</title>
<polygon fill="#ffffb3" stroke="black" points="2040.49,-122 1933.51,-122 1933.51,-86 2040.49,-86 2040.49,-122"/>
<text text-anchor="middle" x="1987" y="-99.8" font-family="Times,serif" font-size="14.00">GridComponent</text>
</g>
<!-- GridComponent&#45;&gt;MaterialComponentsModule -->
<g id="edge8" class="edge">
<title>GridComponent&#45;&gt;MaterialComponentsModule</title>
<path fill="none" stroke="black" d="M1987,-122.01C1987,-138.05 1987,-159 1987,-159 1987,-159 1691.14,-159 1691.14,-159"/>
<polygon fill="black" stroke="black" points="1691.14,-155.5 1681.14,-159 1691.14,-162.5 1691.14,-155.5"/>
</g>
<!-- ListsComponent -->
<g id="node9" class="node">
<title>ListsComponent</title>
<polygon fill="#ffffb3" stroke="black" points="1915.06,-122 1806.94,-122 1806.94,-86 1915.06,-86 1915.06,-122"/>
<text text-anchor="middle" x="1861" y="-99.8" font-family="Times,serif" font-size="14.00">ListsComponent</text>
</g>
<!-- ListsComponent&#45;&gt;MaterialComponentsModule -->
<g id="edge9" class="edge">
<title>ListsComponent&#45;&gt;MaterialComponentsModule</title>
<path fill="none" stroke="black" d="M1861,-122.12C1861,-136.78 1861,-155 1861,-155 1861,-155 1690.83,-155 1690.83,-155"/>
<polygon fill="black" stroke="black" points="1690.83,-151.5 1680.83,-155 1690.83,-158.5 1690.83,-151.5"/>
</g>
<!-- MenuComponent -->
<g id="node10" class="node">
<title>MenuComponent</title>
<polygon fill="#ffffb3" stroke="black" points="1788.99,-122 1675.01,-122 1675.01,-86 1788.99,-86 1788.99,-122"/>
<text text-anchor="middle" x="1732" y="-99.8" font-family="Times,serif" font-size="14.00">MenuComponent</text>
</g>
<!-- MenuComponent&#45;&gt;MaterialComponentsModule -->
<g id="edge10" class="edge">
<title>MenuComponent&#45;&gt;MaterialComponentsModule</title>
<path fill="none" stroke="black" d="M1674.8,-104C1669.4,-104 1665.89,-104 1665.89,-104 1665.89,-104 1665.89,-140.89 1665.89,-140.89"/>
<polygon fill="black" stroke="black" points="1662.39,-140.89 1665.89,-150.89 1669.39,-140.89 1662.39,-140.89"/>
</g>
<!-- ProgressComponent -->
<g id="node11" class="node">
<title>ProgressComponent</title>
<polygon fill="#ffffb3" stroke="black" points="1656.54,-122 1527.46,-122 1527.46,-86 1656.54,-86 1656.54,-122"/>
<text text-anchor="middle" x="1592" y="-99.8" font-family="Times,serif" font-size="14.00">ProgressComponent</text>
</g>
<!-- ProgressComponent&#45;&gt;MaterialComponentsModule -->
<g id="edge11" class="edge">
<title>ProgressComponent&#45;&gt;MaterialComponentsModule</title>
<path fill="none" stroke="black" d="M1592,-122.11C1592,-122.11 1592,-140.99 1592,-140.99"/>
<polygon fill="black" stroke="black" points="1588.5,-140.99 1592,-150.99 1595.5,-140.99 1588.5,-140.99"/>
</g>
<!-- ProgressSnipperComponent -->
<g id="node12" class="node">
<title>ProgressSnipperComponent</title>
<polygon fill="#ffffb3" stroke="black" points="1509.59,-122 1336.41,-122 1336.41,-86 1509.59,-86 1509.59,-122"/>
<text text-anchor="middle" x="1423" y="-99.8" font-family="Times,serif" font-size="14.00">ProgressSnipperComponent</text>
</g>
<!-- ProgressSnipperComponent&#45;&gt;MaterialComponentsModule -->
<g id="edge12" class="edge">
<title>ProgressSnipperComponent&#45;&gt;MaterialComponentsModule</title>
<path fill="none" stroke="black" d="M1509.58,-104C1515.03,-104 1518.39,-104 1518.39,-104 1518.39,-104 1518.39,-140.89 1518.39,-140.89"/>
<polygon fill="black" stroke="black" points="1514.89,-140.89 1518.39,-150.89 1521.89,-140.89 1514.89,-140.89"/>
</g>
<!-- RipplesComponent -->
<g id="node13" class="node">
<title>RipplesComponent</title>
<polygon fill="#ffffb3" stroke="black" points="1318.11,-122 1193.89,-122 1193.89,-86 1318.11,-86 1318.11,-122"/>
<text text-anchor="middle" x="1256" y="-99.8" font-family="Times,serif" font-size="14.00">RipplesComponent</text>
</g>
<!-- RipplesComponent&#45;&gt;MaterialComponentsModule -->
<g id="edge13" class="edge">
<title>RipplesComponent&#45;&gt;MaterialComponentsModule</title>
<path fill="none" stroke="black" d="M1256,-122.12C1256,-136.78 1256,-155 1256,-155 1256,-155 1492.84,-155 1492.84,-155"/>
<polygon fill="black" stroke="black" points="1492.84,-158.5 1502.84,-155 1492.84,-151.5 1492.84,-158.5"/>
</g>
<!-- SlideToggleComponent -->
<g id="node14" class="node">
<title>SlideToggleComponent</title>
<polygon fill="#ffffb3" stroke="black" points="1175.77,-122 1026.23,-122 1026.23,-86 1175.77,-86 1175.77,-122"/>
<text text-anchor="middle" x="1101" y="-99.8" font-family="Times,serif" font-size="14.00">SlideToggleComponent</text>
</g>
<!-- SlideToggleComponent&#45;&gt;MaterialComponentsModule -->
<g id="edge14" class="edge">
<title>SlideToggleComponent&#45;&gt;MaterialComponentsModule</title>
<path fill="none" stroke="black" d="M1101,-122.01C1101,-138.05 1101,-159 1101,-159 1101,-159 1493.08,-159 1493.08,-159"/>
<polygon fill="black" stroke="black" points="1493.08,-162.5 1503.08,-159 1493.08,-155.5 1493.08,-162.5"/>
</g>
<!-- SliderComponent -->
<g id="node15" class="node">
<title>SliderComponent</title>
<polygon fill="#ffffb3" stroke="black" points="1008.27,-122 893.73,-122 893.73,-86 1008.27,-86 1008.27,-122"/>
<text text-anchor="middle" x="951" y="-99.8" font-family="Times,serif" font-size="14.00">SliderComponent</text>
</g>
<!-- SliderComponent&#45;&gt;MaterialComponentsModule -->
<g id="edge15" class="edge">
<title>SliderComponent&#45;&gt;MaterialComponentsModule</title>
<path fill="none" stroke="black" d="M951,-122.03C951,-139.06 951,-162 951,-162 951,-162 1493.21,-162 1493.21,-162"/>
<polygon fill="black" stroke="black" points="1493.21,-165.5 1503.21,-162 1493.21,-158.5 1493.21,-165.5"/>
</g>
<!-- SnackbarComponent -->
<g id="node16" class="node">
<title>SnackbarComponent</title>
<polygon fill="#ffffb3" stroke="black" points="875.92,-122 742.08,-122 742.08,-86 875.92,-86 875.92,-122"/>
<text text-anchor="middle" x="809" y="-99.8" font-family="Times,serif" font-size="14.00">SnackbarComponent</text>
</g>
<!-- SnackbarComponent&#45;&gt;MaterialComponentsModule -->
<g id="edge16" class="edge">
<title>SnackbarComponent&#45;&gt;MaterialComponentsModule</title>
<path fill="none" stroke="black" d="M809,-122.27C809,-140.56 809,-166 809,-166 809,-166 1492.94,-166 1492.94,-166"/>
<polygon fill="black" stroke="black" points="1492.94,-169.5 1502.94,-166 1492.94,-162.5 1492.94,-169.5"/>
</g>
<!-- StepperComponent -->
<g id="node17" class="node">
<title>StepperComponent</title>
<polygon fill="#ffffb3" stroke="black" points="724.1,-122 599.9,-122 599.9,-86 724.1,-86 724.1,-122"/>
<text text-anchor="middle" x="662" y="-99.8" font-family="Times,serif" font-size="14.00">StepperComponent</text>
</g>
<!-- StepperComponent&#45;&gt;MaterialComponentsModule -->
<g id="edge17" class="edge">
<title>StepperComponent&#45;&gt;MaterialComponentsModule</title>
<path fill="none" stroke="black" d="M662,-122.11C662,-141.34 662,-169 662,-169 662,-169 1493.25,-169 1493.25,-169"/>
<polygon fill="black" stroke="black" points="1493.25,-172.5 1503.25,-169 1493.25,-165.5 1493.25,-172.5"/>
</g>
<!-- TabsComponent -->
<g id="node18" class="node">
<title>TabsComponent</title>
<polygon fill="#ffffb3" stroke="black" points="582.05,-122 473.95,-122 473.95,-86 582.05,-86 582.05,-122"/>
<text text-anchor="middle" x="528" y="-99.8" font-family="Times,serif" font-size="14.00">TabsComponent</text>
</g>
<!-- TabsComponent&#45;&gt;MaterialComponentsModule -->
<g id="edge18" class="edge">
<title>TabsComponent&#45;&gt;MaterialComponentsModule</title>
<path fill="none" stroke="black" d="M528,-122.13C528,-142.57 528,-173 528,-173 528,-173 1493.11,-173 1493.11,-173"/>
<polygon fill="black" stroke="black" points="1493.11,-176.5 1503.11,-173 1493.11,-169.5 1493.11,-176.5"/>
</g>
<!-- ToolbarComponent -->
<g id="node19" class="node">
<title>ToolbarComponent</title>
<polygon fill="#ffffb3" stroke="black" points="455.65,-122 330.35,-122 330.35,-86 455.65,-86 455.65,-122"/>
<text text-anchor="middle" x="393" y="-99.8" font-family="Times,serif" font-size="14.00">ToolbarComponent</text>
</g>
<!-- ToolbarComponent&#45;&gt;MaterialComponentsModule -->
<g id="edge19" class="edge">
<title>ToolbarComponent&#45;&gt;MaterialComponentsModule</title>
<path fill="none" stroke="black" d="M393,-122.04C393,-143.66 393,-177 393,-177 393,-177 1492.86,-177 1492.86,-177"/>
<polygon fill="black" stroke="black" points="1492.86,-180.5 1502.86,-177 1492.86,-173.5 1492.86,-180.5"/>
</g>
<!-- TooltipComponent -->
<g id="node20" class="node">
<title>TooltipComponent</title>
<polygon fill="#ffffb3" stroke="black" points="312.06,-122 189.94,-122 189.94,-86 312.06,-86 312.06,-122"/>
<text text-anchor="middle" x="251" y="-99.8" font-family="Times,serif" font-size="14.00">TooltipComponent</text>
</g>
<!-- TooltipComponent&#45;&gt;MaterialComponentsModule -->
<g id="edge20" class="edge">
<title>TooltipComponent&#45;&gt;MaterialComponentsModule</title>
<path fill="none" stroke="black" d="M251,-122.01C251,-144.49 251,-180 251,-180 251,-180 1493.23,-180 1493.23,-180"/>
<polygon fill="black" stroke="black" points="1493.23,-183.5 1503.23,-180 1493.23,-176.5 1493.23,-183.5"/>
</g>
<!-- DemoMaterialModule -->
<g id="node22" class="node">
<title>DemoMaterialModule</title>
<polygon fill="#8dd3c7" stroke="black" points="165.68,-122 162.68,-126 141.68,-126 138.68,-122 24.32,-122 24.32,-86 165.68,-86 165.68,-122"/>
<text text-anchor="middle" x="95" y="-99.8" font-family="Times,serif" font-size="14.00">DemoMaterialModule</text>
</g>
<!-- DemoMaterialModule&#45;&gt;MaterialComponentsModule -->
<g id="edge21" class="edge">
<title>DemoMaterialModule&#45;&gt;MaterialComponentsModule</title>
<path fill="none" stroke="black" d="M95,-122.15C95,-145.76 95,-184 95,-184 95,-184 1493.12,-184 1493.12,-184"/>
<polygon fill="black" stroke="black" points="1493.12,-187.5 1503.12,-184 1493.12,-180.5 1493.12,-187.5"/>
</g>
</g>
</svg>
