<?xml version="1.0" encoding="UTF-8" standalone="no"?>
<!DOCTYPE svg PUBLIC "-//W3C//DTD SVG 1.1//EN"
 "http://www.w3.org/Graphics/SVG/1.1/DTD/svg11.dtd">
<!-- Generated by graphviz version 2.47.0 (20210316.0004)
 -->
<!-- Title: dependencies Pages: 1 -->
<svg width="504pt" height="211pt"
 viewBox="0.00 0.00 504.00 211.00" xmlns="http://www.w3.org/2000/svg" xmlns:xlink="http://www.w3.org/1999/xlink">
<g id="graph0" class="graph" transform="scale(1 1) rotate(0) translate(4 207)">
<title>dependencies</title>
<polygon fill="white" stroke="transparent" points="-4,4 -4,-207 500,-207 500,4 -4,4"/>
<text text-anchor="start" x="227.01" y="-42.4" font-family="sans-serif" font-weight="bold" font-size="14.00">Legend</text>
<polygon fill="#ffffb3" stroke="transparent" points="14,-10 14,-30 34,-30 34,-10 14,-10"/>
<text text-anchor="start" x="37.63" y="-15.4" font-family="sans-serif" font-size="14.00"> &#160;Declarations</text>
<polygon fill="#8dd3c7" stroke="transparent" points="127,-10 127,-30 147,-30 147,-10 127,-10"/>
<text text-anchor="start" x="150.73" y="-15.4" font-family="sans-serif" font-size="14.00"> &#160;Module</text>
<polygon fill="#80b1d3" stroke="transparent" points="213,-10 213,-30 233,-30 233,-10 213,-10"/>
<text text-anchor="start" x="236.78" y="-15.4" font-family="sans-serif" font-size="14.00"> &#160;Bootstrap</text>
<polygon fill="#fdb462" stroke="transparent" points="310,-10 310,-30 330,-30 330,-10 310,-10"/>
<text text-anchor="start" x="333.67" y="-15.4" font-family="sans-serif" font-size="14.00"> &#160;Providers</text>
<polygon fill="#fb8072" stroke="transparent" points="406,-10 406,-30 426,-30 426,-10 406,-10"/>
<text text-anchor="start" x="429.73" y="-15.4" font-family="sans-serif" font-size="14.00"> &#160;Exports</text>
<g id="clust1" class="cluster">
<title>cluster_StarterModule</title>
<polygon fill="none" stroke="black" stroke-dasharray="1,5" points="90,-70 90,-195 406,-195 406,-70 90,-70"/>
</g>
<g id="clust2" class="cluster">
<title>cluster_StarterModule_declarations</title>
<polygon fill="none" stroke="black" points="264,-78 264,-130 398,-130 398,-78 264,-78"/>
</g>
<g id="clust4" class="cluster">
<title>cluster_StarterModule_imports</title>
<polygon fill="none" stroke="black" points="98,-78 98,-130 256,-130 256,-78 98,-78"/>
</g>
<!-- StarterComponent -->
<g id="node1" class="node">
<title>StarterComponent</title>
<polygon fill="#ffffb3" stroke="black" points="390.15,-122 271.85,-122 271.85,-86 390.15,-86 390.15,-122"/>
<text text-anchor="middle" x="331" y="-99.8" font-family="Times,serif" font-size="14.00">StarterComponent</text>
</g>
<!-- StarterModule -->
<g id="node2" class="node">
<title>StarterModule</title>
<polygon fill="#8dd3c7" stroke="black" points="302.36,-187 299.36,-191 278.36,-191 275.36,-187 205.64,-187 205.64,-151 302.36,-151 302.36,-187"/>
<text text-anchor="middle" x="254" y="-164.8" font-family="Times,serif" font-size="14.00">StarterModule</text>
</g>
<!-- StarterComponent&#45;&gt;StarterModule -->
<g id="edge1" class="edge">
<title>StarterComponent&#45;&gt;StarterModule</title>
<path fill="none" stroke="black" d="M287.05,-122.11C287.05,-122.11 287.05,-140.99 287.05,-140.99"/>
<polygon fill="black" stroke="black" points="283.55,-140.99 287.05,-150.99 290.55,-140.99 283.55,-140.99"/>
</g>
<!-- DemoMaterialModule -->
<g id="node3" class="node">
<title>DemoMaterialModule</title>
<polygon fill="#8dd3c7" stroke="black" points="247.68,-122 244.68,-126 223.68,-126 220.68,-122 106.32,-122 106.32,-86 247.68,-86 247.68,-122"/>
<text text-anchor="middle" x="177" y="-99.8" font-family="Times,serif" font-size="14.00">DemoMaterialModule</text>
</g>
<!-- DemoMaterialModule&#45;&gt;StarterModule -->
<g id="edge2" class="edge">
<title>DemoMaterialModule&#45;&gt;StarterModule</title>
<path fill="none" stroke="black" d="M226.58,-122.11C226.58,-122.11 226.58,-140.99 226.58,-140.99"/>
<polygon fill="black" stroke="black" points="223.08,-140.99 226.58,-150.99 230.08,-140.99 223.08,-140.99"/>
</g>
</g>
</svg>
