<?xml version="1.0" encoding="UTF-8" standalone="no"?>
<!DOCTYPE svg PUBLIC "-//W3C//DTD SVG 1.1//EN"
 "http://www.w3.org/Graphics/SVG/1.1/DTD/svg11.dtd">
<!-- Generated by graphviz version 2.47.0 (20210316.0004)
 -->
<!-- Title: dependencies Pages: 1 -->
<svg width="1363pt" height="284pt"
 viewBox="0.00 0.00 1363.00 284.00" xmlns="http://www.w3.org/2000/svg" xmlns:xlink="http://www.w3.org/1999/xlink">
<g id="graph0" class="graph" transform="scale(1 1) rotate(0) translate(4 280)">
<title>dependencies</title>
<polygon fill="white" stroke="transparent" points="-4,4 -4,-280 1359,-280 1359,4 -4,4"/>
<text text-anchor="start" x="656.51" y="-42.4" font-family="sans-serif" font-weight="bold" font-size="14.00">Legend</text>
<polygon fill="#ffffb3" stroke="transparent" points="443.5,-10 443.5,-30 463.5,-30 463.5,-10 443.5,-10"/>
<text text-anchor="start" x="467.13" y="-15.4" font-family="sans-serif" font-size="14.00"> &#160;Declarations</text>
<polygon fill="#8dd3c7" stroke="transparent" points="556.5,-10 556.5,-30 576.5,-30 576.5,-10 556.5,-10"/>
<text text-anchor="start" x="580.23" y="-15.4" font-family="sans-serif" font-size="14.00"> &#160;Module</text>
<polygon fill="#80b1d3" stroke="transparent" points="642.5,-10 642.5,-30 662.5,-30 662.5,-10 642.5,-10"/>
<text text-anchor="start" x="666.28" y="-15.4" font-family="sans-serif" font-size="14.00"> &#160;Bootstrap</text>
<polygon fill="#fdb462" stroke="transparent" points="739.5,-10 739.5,-30 759.5,-30 759.5,-10 739.5,-10"/>
<text text-anchor="start" x="763.17" y="-15.4" font-family="sans-serif" font-size="14.00"> &#160;Providers</text>
<polygon fill="#fb8072" stroke="transparent" points="835.5,-10 835.5,-30 855.5,-30 855.5,-10 835.5,-10"/>
<text text-anchor="start" x="859.23" y="-15.4" font-family="sans-serif" font-size="14.00"> &#160;Exports</text>
<g id="clust1" class="cluster">
<title>cluster_AppModule</title>
<polygon fill="none" stroke="black" stroke-dasharray="1,5" points="8,-70 8,-268 1347,-268 1347,-70 8,-70"/>
</g>
<g id="clust2" class="cluster">
<title>cluster_AppModule_declarations</title>
<polygon fill="none" stroke="black" points="298,-78 298,-130 1339,-130 1339,-78 298,-78"/>
</g>
<g id="clust12" class="cluster">
<title>cluster_AppModule_bootstrap</title>
<polygon fill="none" stroke="black" points="571,-208 571,-260 695,-260 695,-208 571,-208"/>
</g>
<g id="clust10" class="cluster">
<title>cluster_AppModule_imports</title>
<polygon fill="none" stroke="black" points="16,-78 16,-130 290,-130 290,-78 16,-78"/>
</g>
<!-- AppBreadcrumbComponent -->
<g id="node1" class="node">
<title>AppBreadcrumbComponent</title>
<polygon fill="#ffffb3" stroke="black" points="1331.13,-122 1156.87,-122 1156.87,-86 1331.13,-86 1331.13,-122"/>
<text text-anchor="middle" x="1244" y="-99.8" font-family="Times,serif" font-size="14.00">AppBreadcrumbComponent</text>
</g>
<!-- AppModule -->
<g id="node8" class="node">
<title>AppModule</title>
<polygon fill="#8dd3c7" stroke="black" points="674.66,-187 671.66,-191 650.66,-191 647.66,-187 591.34,-187 591.34,-151 674.66,-151 674.66,-187"/>
<text text-anchor="middle" x="633" y="-164.8" font-family="Times,serif" font-size="14.00">AppModule</text>
</g>
<!-- AppBreadcrumbComponent&#45;&gt;AppModule -->
<g id="edge1" class="edge">
<title>AppBreadcrumbComponent&#45;&gt;AppModule</title>
<path fill="none" stroke="black" d="M1244,-122.01C1244,-144.49 1244,-180 1244,-180 1244,-180 685,-180 685,-180"/>
<polygon fill="black" stroke="black" points="685,-176.5 675,-180 685,-183.5 685,-176.5"/>
</g>
<!-- AppComponent -->
<g id="node2" class="node">
<title>AppComponent</title>
<polygon fill="#ffffb3" stroke="black" points="1138.94,-122 1033.06,-122 1033.06,-86 1138.94,-86 1138.94,-122"/>
<text text-anchor="middle" x="1086" y="-99.8" font-family="Times,serif" font-size="14.00">AppComponent</text>
</g>
<!-- AppComponent&#45;&gt;AppModule -->
<g id="edge2" class="edge">
<title>AppComponent&#45;&gt;AppModule</title>
<path fill="none" stroke="black" d="M1086,-122.13C1086,-142.57 1086,-173 1086,-173 1086,-173 684.81,-173 684.81,-173"/>
<polygon fill="black" stroke="black" points="684.81,-169.5 674.81,-173 684.81,-176.5 684.81,-169.5"/>
</g>
<!-- AppHeaderComponent -->
<g id="node3" class="node">
<title>AppHeaderComponent</title>
<polygon fill="#ffffb3" stroke="black" points="1014.85,-122 869.15,-122 869.15,-86 1014.85,-86 1014.85,-122"/>
<text text-anchor="middle" x="942" y="-99.8" font-family="Times,serif" font-size="14.00">AppHeaderComponent</text>
</g>
<!-- AppHeaderComponent&#45;&gt;AppModule -->
<g id="edge3" class="edge">
<title>AppHeaderComponent&#45;&gt;AppModule</title>
<path fill="none" stroke="black" d="M942,-122.27C942,-140.56 942,-166 942,-166 942,-166 684.67,-166 684.67,-166"/>
<polygon fill="black" stroke="black" points="684.67,-162.5 674.67,-166 684.67,-169.5 684.67,-162.5"/>
</g>
<!-- AppSidebarComponent -->
<g id="node4" class="node">
<title>AppSidebarComponent</title>
<polygon fill="#ffffb3" stroke="black" points="851.2,-122 702.8,-122 702.8,-86 851.2,-86 851.2,-122"/>
<text text-anchor="middle" x="777" y="-99.8" font-family="Times,serif" font-size="14.00">AppSidebarComponent</text>
</g>
<!-- AppSidebarComponent&#45;&gt;AppModule -->
<g id="edge4" class="edge">
<title>AppSidebarComponent&#45;&gt;AppModule</title>
<path fill="none" stroke="black" d="M777,-122.01C777,-138.05 777,-159 777,-159 777,-159 685.04,-159 685.04,-159"/>
<polygon fill="black" stroke="black" points="685.04,-155.5 675.04,-159 685.04,-162.5 685.04,-155.5"/>
</g>
<!-- FullComponent -->
<g id="node5" class="node">
<title>FullComponent</title>
<polygon fill="#ffffb3" stroke="black" points="684.9,-122 581.1,-122 581.1,-86 684.9,-86 684.9,-122"/>
<text text-anchor="middle" x="633" y="-99.8" font-family="Times,serif" font-size="14.00">FullComponent</text>
</g>
<!-- FullComponent&#45;&gt;AppModule -->
<g id="edge5" class="edge">
<title>FullComponent&#45;&gt;AppModule</title>
<path fill="none" stroke="black" d="M633,-122.11C633,-122.11 633,-140.99 633,-140.99"/>
<polygon fill="black" stroke="black" points="629.5,-140.99 633,-150.99 636.5,-140.99 629.5,-140.99"/>
</g>
<!-- LoginComponent -->
<g id="node6" class="node">
<title>LoginComponent</title>
<polygon fill="#ffffb3" stroke="black" points="563.28,-122 448.72,-122 448.72,-86 563.28,-86 563.28,-122"/>
<text text-anchor="middle" x="506" y="-99.8" font-family="Times,serif" font-size="14.00">LoginComponent</text>
</g>
<!-- LoginComponent&#45;&gt;AppModule -->
<g id="edge6" class="edge">
<title>LoginComponent&#45;&gt;AppModule</title>
<path fill="none" stroke="black" d="M506,-122.01C506,-138.05 506,-159 506,-159 506,-159 581.06,-159 581.06,-159"/>
<polygon fill="black" stroke="black" points="581.06,-162.5 591.06,-159 581.06,-155.5 581.06,-162.5"/>
</g>
<!-- SpinnerComponent -->
<g id="node7" class="node">
<title>SpinnerComponent</title>
<polygon fill="#ffffb3" stroke="black" points="430.38,-122 305.62,-122 305.62,-86 430.38,-86 430.38,-122"/>
<text text-anchor="middle" x="368" y="-99.8" font-family="Times,serif" font-size="14.00">SpinnerComponent</text>
</g>
<!-- SpinnerComponent&#45;&gt;AppModule -->
<g id="edge7" class="edge">
<title>SpinnerComponent&#45;&gt;AppModule</title>
<path fill="none" stroke="black" d="M368,-122.27C368,-140.56 368,-166 368,-166 368,-166 581.3,-166 581.3,-166"/>
<polygon fill="black" stroke="black" points="581.3,-169.5 591.3,-166 581.3,-162.5 581.3,-169.5"/>
</g>
<!-- AppComponent  -->
<g id="node11" class="node">
<title>AppComponent </title>
<polygon fill="#80b1d3" stroke="black" points="687.44,-252 578.56,-252 578.56,-216 687.44,-216 687.44,-252"/>
<text text-anchor="middle" x="633" y="-229.8" font-family="Times,serif" font-size="14.00">AppComponent </text>
</g>
<!-- AppModule&#45;&gt;AppComponent  -->
<g id="edge10" class="edge">
<title>AppModule&#45;&gt;AppComponent </title>
<path fill="none" stroke="black" stroke-dasharray="1,5" d="M633,-187.11C633,-187.11 633,-205.99 633,-205.99"/>
<polygon fill="black" stroke="black" points="629.5,-205.99 633,-215.99 636.5,-205.99 629.5,-205.99"/>
</g>
<!-- DemoMaterialModule -->
<g id="node9" class="node">
<title>DemoMaterialModule</title>
<polygon fill="#8dd3c7" stroke="black" points="281.68,-122 278.68,-126 257.68,-126 254.68,-122 140.32,-122 140.32,-86 281.68,-86 281.68,-122"/>
<text text-anchor="middle" x="211" y="-99.8" font-family="Times,serif" font-size="14.00">DemoMaterialModule</text>
</g>
<!-- DemoMaterialModule&#45;&gt;AppModule -->
<g id="edge8" class="edge">
<title>DemoMaterialModule&#45;&gt;AppModule</title>
<path fill="none" stroke="black" d="M211,-122.13C211,-142.57 211,-173 211,-173 211,-173 580.99,-173 580.99,-173"/>
<polygon fill="black" stroke="black" points="580.99,-176.5 590.99,-173 580.99,-169.5 580.99,-176.5"/>
</g>
<!-- SharedModule -->
<g id="node10" class="node">
<title>SharedModule</title>
<polygon fill="#8dd3c7" stroke="black" points="122.42,-122 119.42,-126 98.42,-126 95.42,-122 23.58,-122 23.58,-86 122.42,-86 122.42,-122"/>
<text text-anchor="middle" x="73" y="-99.8" font-family="Times,serif" font-size="14.00">SharedModule</text>
</g>
<!-- SharedModule&#45;&gt;AppModule -->
<g id="edge9" class="edge">
<title>SharedModule&#45;&gt;AppModule</title>
<path fill="none" stroke="black" d="M73,-122.01C73,-144.49 73,-180 73,-180 73,-180 580.91,-180 580.91,-180"/>
<polygon fill="black" stroke="black" points="580.91,-183.5 590.91,-180 580.91,-176.5 580.91,-183.5"/>
</g>
</g>
</svg>
